# xmcd
#
# Track frame offsets: 
#        150
#        23935
#        43782
#        74692
#        88567
#        118014
#        141574
#        168246
#        193606
#        209666
#        232851
#
# Disc length: 3440 seconds
#
# Revision: 0
# Processed by: cddbd v1.5.2PL0 Copyright (c) Steve Scherf et al.
# Submitted via: ExactAudioCopyFreeDBPlugin 1.0
#
DISCID=a20d6e0b
DTITLE=DVL - Diablo
DYEAR=2016
DGENRE=Blues Rock
TTITLE0=She's Dangerous
TTITLE1=Highway Man
TTITLE2=Devil Woman
TTITLE3=I Wish You Would
TTITLE4=Cross Your Heart
TTITLE5=Cut That Out
TTITLE6=Tail Dragger
TTITLE7=No Fightin'
TTITLE8=Pray For Me
TTITLE9=Going To The Church
TTITLE10=Time To Cry
EXTD=
EXTT0=
EXTT1=
EXTT2=
EXTT3=
EXTT4=
EXTT5=
EXTT6=
EXTT7=
EXTT8=
EXTT9=
EXTT10=
PLAYORDER=
